<?xml version="1.0" standalone="no"?>
<!DOCTYPE svg PUBLIC "-//W3C//DTD SVG 20010904//EN"
 "http://www.w3.org/TR/2001/REC-SVG-20010904/DTD/svg10.dtd">
<svg version="1.0" xmlns="http://www.w3.org/2000/svg"
 width="576.000000pt" height="500.000000pt" viewBox="0 0 576.000000 500.000000"
 preserveAspectRatio="xMidYMid meet">

<g transform="translate(0.000000,500.000000) scale(0.100000,-0.100000)"
fill="#000000" stroke="none">
<path d="M797 4975 c-19 -17 -40 -25 -65 -25 -20 0 -53 -4 -72 -10 -27 -8 -48
-5 -102 12 l-68 22 -81 -42 c-88 -46 -113 -50 -147 -26 -16 11 -34 13 -66 9
-40 -6 -49 -4 -83 23 -50 41 -88 50 -101 25 -11 -20 -14 -4415 -4 -4703 l7
-175 63 -3 c35 -2 69 2 76 7 7 6 37 15 65 21 43 8 57 7 74 -5 30 -21 85 -19
127 4 19 11 76 40 125 64 88 44 92 45 192 45 57 0 105 -4 109 -9 3 -5 13 -5
24 1 11 6 36 8 57 4 32 -5 43 -2 67 21 17 15 40 28 53 28 13 0 26 3 29 8 3 5
29 9 59 9 30 0 57 5 60 11 4 6 14 8 23 4 8 -3 19 0 23 7 6 9 40 13 116 14 59
1 110 2 113 3 3 1 60 4 128 6 117 3 125 2 159 -20 19 -14 51 -27 72 -30 20 -3
70 -15 112 -25 42 -11 89 -20 104 -20 15 0 73 -25 129 -55 l102 -54 44 15 c40
14 49 14 99 -2 54 -17 57 -17 119 5 34 12 67 19 72 16 5 -3 19 -1 30 5 16 9
34 8 73 -3 100 -29 169 -35 267 -25 52 5 142 8 200 6 91 -4 112 -8 159 -32 61
-31 103 -36 129 -14 24 21 43 26 147 37 l90 10 50 -33 c83 -55 89 -57 123 -44
23 9 43 9 84 -1 47 -12 58 -11 93 4 55 25 113 28 161 10 51 -19 122 -22 282
-11 l122 9 74 -38 73 -38 39 27 c27 18 52 26 83 26 24 0 60 5 81 11 29 9 49 8
101 -6 110 -30 111 -30 207 14 96 44 135 50 170 25 17 -12 35 -14 75 -9 48 6
57 4 111 -29 67 -40 74 -42 102 -22 19 14 19 47 19 2065 0 1775 -2 2051 -14
2051 -47 0 -151 79 -151 115 0 18 -24 31 -113 61 -38 13 -91 37 -116 53 -68
42 -191 105 -204 103 -68 -7 -159 -8 -163 -1 -3 5 -20 9 -37 9 -18 0 -47 4
-65 9 -21 7 -32 6 -32 -1 0 -6 -13 -8 -32 -5 -18 3 -50 0 -71 -6 -34 -9 -40
-8 -65 16 -26 25 -116 63 -177 74 -16 3 -56 28 -88 54 -32 27 -60 49 -62 49
-2 0 -16 -5 -30 -12 -19 -9 -31 -8 -49 2 -26 14 -45 11 -115 -15 -42 -15 -47
-15 -85 2 -34 15 -62 18 -186 15 -131 -3 -148 -1 -170 16 -55 43 -68 45 -100
19 -39 -33 -167 -46 -222 -22 -49 20 -70 19 -111 -5 -18 -11 -57 -24 -86 -30
-48 -9 -58 -7 -95 12 -22 13 -54 33 -69 45 -16 13 -33 23 -38 23 -5 0 -17 8
-28 19 -10 10 -43 26 -72 36 -30 10 -63 26 -75 36 -26 24 -51 24 -116 -2 -31
-12 -65 -19 -83 -16 -21 3 -38 -1 -54 -14 -28 -23 -52 -24 -92 -4 -16 9 -34
13 -40 10 -5 -4 -30 -8 -55 -9 -29 -2 -52 -10 -65 -22 -18 -18 -26 -19 -90
-11 -47 6 -74 6 -81 -1 -7 -7 -19 -7 -36 -1 -18 7 -41 6 -73 -2 -46 -12 -48
-12 -78 18 -20 21 -45 34 -73 38 -24 4 -55 14 -70 21 -15 8 -38 14 -52 14 -15
0 -48 19 -83 48 -77 64 -78 64 -107 51 -20 -10 -35 -9 -66 1 -36 12 -45 11
-78 -5 -49 -24 -100 -28 -138 -10 -38 18 -109 21 -241 10 l-103 -8 -59 37
c-32 20 -63 36 -68 36 -4 0 -21 -12 -36 -25z"/>
</g>
</svg>
